<svg width="24" height="24" viewBox="0 0 24 24" fill="none" xmlns="http://www.w3.org/2000/svg">
<path fill-rule="evenodd" clip-rule="evenodd" d="M12.4539 2.20365C12.7894 2.08276 13.1684 2.17195 13.406 2.42768L21.9339 11.6064C22.2225 11.917 22.2225 12.3837 21.9339 12.6944L13.406 21.8731C13.1684 22.1288 12.7894 22.218 12.4539 22.0971C12.1185 21.9762 11.8966 21.6704 11.8966 21.3291V16.057C10.4761 16.1445 9.10402 16.4633 7.84589 17.1524C6.34202 17.9762 4.93105 19.3673 3.79489 21.6772C3.62345 22.0258 3.22068 22.2143 2.82594 22.1307C2.4312 22.0471 2.15039 21.7139 2.15039 21.3291C2.15039 16.2339 3.46738 12.9436 5.54325 10.931C7.3795 9.15079 9.69797 8.47827 11.8966 8.34564V2.97168C11.8966 2.63032 12.1185 2.32455 12.4539 2.20365ZM13.6225 5.14028V9.14129C13.6225 9.59485 13.2361 9.96254 12.7595 9.96254C10.5943 9.96254 8.41779 10.4889 6.77489 12.0816C5.53472 13.284 4.51757 15.1724 4.09161 18.1051C4.9683 17.0778 5.94169 16.3003 6.98494 15.7289C8.83332 14.7164 10.8313 14.3887 12.7595 14.3887C13.2361 14.3887 13.6225 14.7564 13.6225 15.2099V19.1605L20.1355 12.1504L13.6225 5.14028Z" fill="#D2D2D2"/>
</svg>
