<svg width="38" height="38" viewBox="0 0 38 38" fill="none" xmlns="http://www.w3.org/2000/svg">
<path fill-rule="evenodd" clip-rule="evenodd" d="M26.4875 3.41675C31.4063 3.41675 34.5835 6.41425 34.5835 11.0526V26.9457C34.5835 31.5841 31.4063 34.5834 26.4875 34.5834H11.5128C6.594 34.5834 3.41683 31.5841 3.41683 26.9457V11.0526C3.41683 6.41425 6.594 3.41675 11.5128 3.41675H26.4875ZM11.5128 37.3334H26.4875C32.9738 37.3334 37.3335 33.1589 37.3335 26.9457V11.0526C37.3335 4.83942 32.9738 0.666748 26.4875 0.666748H11.5128C5.0265 0.666748 0.666828 4.83942 0.666828 11.0526V26.9457C0.666828 33.1589 5.0265 37.3334 11.5128 37.3334Z" fill="#fff"/>
<path fill-rule="evenodd" clip-rule="evenodd" d="M11.5092 20.375H26.4912C27.2502 20.375 27.8662 19.759 27.8662 19C27.8662 18.241 27.2502 17.625 26.4912 17.625H11.5092C10.7502 17.625 10.1342 18.241 10.1342 19C10.1342 19.759 10.7502 20.375 11.5092 20.375Z" fill="#fff"/>
<path fill-rule="evenodd" clip-rule="evenodd" d="M18.4093 27.2464C18.7613 27.2464 19.1152 27.1125 19.3828 26.8412C19.9182 26.3022 19.9163 25.4332 19.3792 24.8979L13.4575 19L19.3792 13.1022C19.9163 12.5669 19.9182 11.6979 19.3828 11.1589C18.8475 10.6199 17.9785 10.6199 17.4395 11.1552L10.5388 18.0265C10.2785 18.2832 10.1337 18.6352 10.1337 19C10.1337 19.3649 10.2785 19.7169 10.5388 19.9735L17.4395 26.8449C17.7072 27.1125 18.0592 27.2464 18.4093 27.2464Z" fill="#fff"/>
</svg>
