<svg width="48" height="48" viewBox="0 0 48 48" fill="none" xmlns="http://www.w3.org/2000/svg">
<circle cx="24" cy="24" r="24" fill="url(#paint0_linear)"/>
<path d="M29 28.002C26.049 28.002 23.597 27.363 22 26.29C22 27.036 22 27.528 22 28.002C22 29.659 25.134 31.002 29 31.002C32.866 31.002 36 29.659 36 28.002C36 27.528 36 27.036 36 26.29C34.403 27.363 31.951 28.002 29 28.002Z" fill="white"/>
<path d="M29 33.004C26.049 33.004 23.597 32.365 22 31.292C22 32.038 22 32.53 22 33.004C22 34.661 25.134 36.004 29 36.004C32.866 36.004 36 34.661 36 33.004C36 32.53 36 32.038 36 31.292C34.403 32.365 31.951 33.004 29 33.004Z" fill="white"/>
<ellipse cx="29" cy="23" rx="7" ry="3" fill="white"/>
<ellipse cx="19" cy="15" rx="7" ry="3" fill="white"/>
<path d="M20 29.979C19.673 29.995 19.341 30.006 19 30.006C16.049 30.006 13.597 29.367 12 28.294C12 29.04 12 29.532 12 30.006C12 31.663 15.134 33.006 19 33.006C19.34 33.006 19.673 32.992 20 32.972V29.979Z" fill="white"/>
<path d="M20 24.977C19.673 24.993 19.341 25.004 19 25.004C16.049 25.004 13.597 24.365 12 23.292C12 24.038 12 24.53 12 25.004C12 26.661 15.134 28.004 19 28.004C19.34 28.004 19.673 27.99 20 27.97V24.977Z" fill="white"/>
<path d="M21.92 19.768C21.018 19.918 20.042 20.002 19 20.002C16.049 20.002 13.597 19.363 12 18.29C12 19.036 12 19.528 12 20.002C12 21.659 15.134 23.002 19 23.002C19.341 23.002 19.674 22.988 20.003 22.968C20.015 21.705 20.71 20.608 21.92 19.768Z" fill="white"/>
<defs>
<linearGradient id="paint0_linear" x1="0" y1="0" x2="0" y2="48" gradientUnits="userSpaceOnUse">
<stop stop-color="#FFCE6A"/>
<stop offset="1" stop-color="#FF9F38"/>
</linearGradient>
</defs>
</svg>
