<svg width="44" height="38" viewBox="0 0 44 38" fill="none" xmlns="http://www.w3.org/2000/svg">
<g filter="url(#filter0_d)">
<path d="M30.7763 15.3974C30.5981 15.2713 30.3602 15.2687 30.1799 15.3897L27.1529 17.3842C27.0365 17.462 26.9552 17.583 26.9284 17.7205C26.9006 17.8575 26.9294 18.0001 27.0077 18.1165C27.1817 18.3761 27.2734 18.6789 27.2734 18.9925C27.2734 19.8649 26.5638 20.5745 25.6914 20.5745C24.819 20.5745 24.1094 19.8649 24.1094 18.9925C24.1094 18.4796 24.3627 17.996 24.7861 17.6983C25.024 17.5315 25.0817 17.2029 24.9148 16.9645L22.4315 13.4168C22.2359 13.1346 21.7641 13.1346 21.5684 13.4168L19.0852 16.9645C18.9183 17.203 18.976 17.5315 19.2139 17.6984C19.6372 17.996 19.8906 18.4796 19.8906 18.9925C19.8906 19.8649 19.181 20.5746 18.3086 20.5746C17.4362 20.5746 16.7266 19.8649 16.7266 18.9925C16.7266 18.6789 16.8182 18.3761 16.9923 18.1166C17.0706 18.0002 17.0994 17.8575 17.0716 17.7205C17.0448 17.583 16.9635 17.462 16.8471 17.3843L13.82 15.3897C13.6388 15.2687 13.4019 15.2713 13.2237 15.3975C13.0455 15.5231 12.9631 15.7451 13.0156 15.9562L15.16 24.3937C15.2259 24.6595 15.4834 24.8371 15.7584 24.7862C19.9009 24.0961 24.0991 24.0961 28.2416 24.7862C28.2704 24.7913 28.3003 24.7934 28.3281 24.7934C28.5661 24.7934 28.7803 24.6316 28.84 24.3937L30.9844 15.9562C31.0369 15.7451 30.9545 15.5231 30.7763 15.3974Z" fill="url(#paint0_linear)"/>
</g>
<defs>
<filter id="filter0_d" x="0" y="0.205154" width="44" height="37.5897" filterUnits="userSpaceOnUse" color-interpolation-filters="sRGB">
<feFlood flood-opacity="0" result="BackgroundImageFix"/>
<feColorMatrix in="SourceAlpha" type="matrix" values="0 0 0 0 0 0 0 0 0 0 0 0 0 0 0 0 0 0 127 0" result="hardAlpha"/>
<feOffset/>
<feGaussianBlur stdDeviation="6.5"/>
<feComposite in2="hardAlpha" operator="out"/>
<feColorMatrix type="matrix" values="0 0 0 0 1 0 0 0 0 0.624278 0 0 0 0 0.220426 0 0 0 0.58 0"/>
<feBlend mode="normal" in2="BackgroundImageFix" result="effect1_dropShadow"/>
<feBlend mode="normal" in="SourceGraphic" in2="effect1_dropShadow" result="shape"/>
</filter>
<linearGradient id="paint0_linear" x1="22" y1="24.7948" x2="22" y2="13.2052" gradientUnits="userSpaceOnUse">
<stop stop-color="#FFB94C"/>
<stop offset="1" stop-color="#DA9543"/>
</linearGradient>
</defs>
</svg>
