<svg width="20" height="19" viewBox="0 0 20 19" fill="none" xmlns="http://www.w3.org/2000/svg">
<path fill-rule="evenodd" clip-rule="evenodd" d="M18.7501 18.9397H11.4971C11.0831 18.9397 10.7471 18.6037 10.7471 18.1897C10.7471 17.7757 11.0831 17.4397 11.4971 17.4397H18.7501C19.1641 17.4397 19.5001 17.7757 19.5001 18.1897C19.5001 18.6037 19.1641 18.9397 18.7501 18.9397Z" fill="#D2D2D2"/>
<mask id="mask0" mask-type="alpha" maskUnits="userSpaceOnUse" x="0" y="0" width="18" height="19">
<path fill-rule="evenodd" clip-rule="evenodd" d="M0 0.000152588H17.1806V18.9397H0V0.000152588Z" fill="white"/>
</mask>
<g mask="url(#mask0)">
<path fill-rule="evenodd" clip-rule="evenodd" d="M11.1103 2.0168L1.69527 13.7918C1.52427 14.0058 1.46127 14.2818 1.52427 14.5468L2.20527 17.4318L5.24427 17.3938C5.53327 17.3908 5.80027 17.2618 5.97727 17.0418C9.19427 13.0168 15.3273 5.3428 15.5013 5.11779C15.6653 4.8518 15.7293 4.4758 15.6433 4.1138C15.5553 3.7428 15.3243 3.4278 14.9913 3.2268C14.9203 3.1778 13.2353 1.8698 13.1833 1.8288C12.5493 1.3208 11.6243 1.4088 11.1103 2.0168ZM1.61327 18.9398C1.26627 18.9398 0.964274 18.7018 0.883274 18.3628L0.0642743 14.8918C-0.104726 14.1728 0.0632743 13.4308 0.524274 12.8548L9.94427 1.0728C9.94827 1.0688 9.95127 1.0638 9.95527 1.0598C10.9883 -0.175205 12.8563 -0.357205 14.1163 0.653795C14.1663 0.692795 15.8393 1.9928 15.8393 1.9928C16.4473 2.3548 16.9223 3.0018 17.1023 3.7678C17.2813 4.5258 17.1513 5.3078 16.7343 5.9688C16.7033 6.0178 16.6763 6.0598 7.14827 17.9798C6.68927 18.5518 6.00127 18.8848 5.26227 18.8938L1.62327 18.9398H1.61327Z" fill="#D2D2D2"/>
</g>
<path fill-rule="evenodd" clip-rule="evenodd" d="M14.2234 8.68479C14.0634 8.68479 13.9034 8.63379 13.7664 8.52979L8.31442 4.34179C7.98642 4.08979 7.92442 3.61979 8.17642 3.28979C8.42942 2.96179 8.89942 2.90079 9.22842 3.15279L14.6814 7.33979C15.0094 7.59179 15.0714 8.06279 14.8184 8.39179C14.6714 8.58379 14.4484 8.68479 14.2234 8.68479Z" fill="#D2D2D2"/>
</svg>
