<svg width="14" height="13" viewBox="0 0 14 13" fill="none" xmlns="http://www.w3.org/2000/svg">
<path fill-rule="evenodd" clip-rule="evenodd" d="M5.56022 10.9446H0.834473C0.523973 10.9446 0.271973 10.6926 0.271973 10.3821C0.271973 10.0716 0.523973 9.81961 0.834473 9.81961H5.56022C5.87072 9.81961 6.12272 10.0716 6.12272 10.3821C6.12272 10.6926 5.87072 10.9446 5.56022 10.9446Z" fill="#D2D2D2"/>
<path fill-rule="evenodd" clip-rule="evenodd" d="M12.393 3.67529H7.66797C7.35747 3.67529 7.10547 3.42329 7.10547 3.11279C7.10547 2.80229 7.35747 2.55029 7.66797 2.55029H12.393C12.7035 2.55029 12.9555 2.80229 12.9555 3.11279C12.9555 3.42329 12.7035 3.67529 12.393 3.67529Z" fill="#D2D2D2"/>
<mask id="mask0" mask-type="alpha" maskUnits="userSpaceOnUse" x="0" y="0" width="5" height="6">
<path fill-rule="evenodd" clip-rule="evenodd" d="M0.25 0.750305H4.91935V5.39401H0.25V0.750305Z" fill="white"/>
</mask>
<g mask="url(#mask0)">
<path fill-rule="evenodd" clip-rule="evenodd" d="M2.58475 1.875C1.918 1.875 1.375 2.412 1.375 3.07275C1.375 3.73275 1.918 4.269 2.58475 4.269C3.25225 4.269 3.7945 3.73275 3.7945 3.07275C3.7945 2.412 3.25225 1.875 2.58475 1.875ZM2.58475 5.394C1.29775 5.394 0.25 4.353 0.25 3.07275C0.25 1.7925 1.29775 0.75 2.58475 0.75C3.8725 0.75 4.9195 1.7925 4.9195 3.07275C4.9195 4.353 3.8725 5.394 2.58475 5.394Z" fill="#D2D2D2"/>
</g>
<path fill-rule="evenodd" clip-rule="evenodd" d="M11.0406 9.15601C10.3731 9.15601 9.83008 9.69301 9.83008 10.353C9.83008 11.0138 10.3731 11.55 11.0406 11.55C11.7073 11.55 12.2496 11.0138 12.2496 10.353C12.2496 9.69301 11.7073 9.15601 11.0406 9.15601ZM11.0406 12.675C9.75283 12.675 8.70508 11.6333 8.70508 10.353C8.70508 9.07276 9.75283 8.03101 11.0406 8.03101C12.3276 8.03101 13.3746 9.07276 13.3746 10.353C13.3746 11.6333 12.3276 12.675 11.0406 12.675Z" fill="#D2D2D2"/>
</svg>
