<svg width="22" height="17" viewBox="0 0 22 17" fill="none" xmlns="http://www.w3.org/2000/svg">
<path d="M3.91881 9H3.00081C1.71881 9 0.767814 10.19 1.04981 11.44L1.72681 14.44C1.93281 15.352 2.74281 16 3.67781 16H4.87381C5.19481 16 5.43181 15.703 5.36181 15.39L4.06981 9.669C3.06681 5.226 6.44481 1 10.9998 1V1V1C15.5548 1 18.9328 5.226 17.9298 9.669L16.6388 15.39C16.5678 15.703 16.8058 16 17.1258 16H18.3218C19.2568 16 20.0668 15.352 20.2728 14.44L20.9498 11.44C21.2318 10.19 20.2808 9 18.9988 9H18.0808" stroke="white" stroke-width="1.5" stroke-linecap="round" stroke-linejoin="round"/>
</svg>
