<svg width="24" height="24" viewBox="0 0 24 24" fill="none" xmlns="http://www.w3.org/2000/svg">
<path fill-rule="evenodd" clip-rule="evenodd" d="M8.61307 3.05386C8.78356 2.88338 9.01479 2.7876 9.25589 2.7876H21.0206C21.2617 2.7876 21.4929 2.88338 21.6634 3.05386C21.8339 3.22435 21.9297 3.45558 21.9297 3.69669V17.6004C21.9297 18.4148 21.6882 19.2109 21.2357 19.8881C20.7833 20.5652 20.1402 21.093 19.3878 21.4046C18.6354 21.7163 17.8075 21.7978 17.0087 21.639C16.21 21.4801 15.4763 21.0879 14.9004 20.512C14.3246 19.9362 13.9324 19.2025 13.7735 18.4037C13.6146 17.605 13.6962 16.7771 14.0078 16.0247C14.3195 15.2723 14.8473 14.6292 15.5244 14.1767C16.2014 13.7244 16.9974 13.4829 17.8116 13.4828C18.536 13.4866 19.2463 13.6837 19.8691 14.0538L20.1115 14.1979V9.95337H10.165V17.6004C10.165 18.4148 9.92349 19.2109 9.47103 19.8881C9.01858 20.5652 8.37549 21.093 7.62309 21.4046C6.87069 21.7163 6.04277 21.7978 5.24402 21.639C4.44528 21.4801 3.71158 21.0879 3.13572 20.512C2.55986 19.9362 2.16769 19.2025 2.00881 18.4037C1.84993 17.605 1.93147 16.7771 2.24313 16.0247C2.55478 15.2723 3.08255 14.6292 3.75969 14.1767C4.43672 13.7244 5.23266 13.4829 6.0469 13.4828C6.77134 13.4866 7.48163 13.6837 8.10442 14.0538L8.3468 14.1979V3.69669C8.3468 3.45558 8.44258 3.22435 8.61307 3.05386ZM20.1115 4.40759H10.165V8.37302H20.1115V4.40759ZM6.07201 14.9663C4.60088 14.9663 3.40829 16.1589 3.40829 17.63C3.40829 19.1011 4.60088 20.2937 6.07201 20.2937C7.54314 20.2937 8.73572 19.1011 8.73572 17.63C8.73572 16.1589 7.54314 14.9663 6.07201 14.9663ZM17.8425 14.9663C16.3713 14.9663 15.1787 16.1589 15.1787 17.63C15.1787 19.1011 16.3713 20.2937 17.8425 20.2937C19.3136 20.2937 20.5062 19.1011 20.5062 17.63C20.5062 16.1589 19.3136 14.9663 17.8425 14.9663Z" fill="white"/>
</svg>
