<svg width="24" height="24" viewBox="0 0 24 24" fill="none" xmlns="http://www.w3.org/2000/svg">
<path d="M11.225 14.5C7.625 10.8 7.025 5.2 9.625 1C7.625 1.4 5.725 2.4 4.225 4C-0.075 8.3 -0.075 15.3 4.225 19.6C8.525 23.9 15.525 23.9 19.825 19.6C20.425 19 21.025 18.3 21.425 17.6C17.825 18.2 14.025 17.2 11.225 14.5Z" stroke="#DA9543" stroke-width="1.5" stroke-miterlimit="10" stroke-linecap="round" stroke-linejoin="round"/>
<path d="M22.0249 9.69995C20.6249 8.29995 17.4249 8.29995 16.0249 9.69995C17.4249 8.29995 17.4249 5.09995 16.0249 3.69995C17.4249 5.09995 20.6249 5.09995 22.0249 3.69995C20.6249 5.09995 20.6249 8.29995 22.0249 9.69995Z" stroke="#DA9543" stroke-width="1.5" stroke-miterlimit="10" stroke-linecap="round" stroke-linejoin="round"/>
</svg>
