<svg width="21" height="21" viewBox="0 0 21 21" fill="none" xmlns="http://www.w3.org/2000/svg">
<path fill-rule="evenodd" clip-rule="evenodd" d="M10.4534 0.203228C10.7889 0.0823328 11.1679 0.171522 11.4055 0.427251L19.9334 9.60594C20.2221 9.9166 20.2221 10.3833 19.9334 10.6939L11.4055 19.8726C11.1679 20.1284 10.7889 20.2175 10.4534 20.0967C10.118 19.9758 9.8961 19.67 9.8961 19.3286V14.0566C8.4756 14.1441 7.10353 14.4628 5.8454 15.152C4.34153 15.9758 2.93056 17.3669 1.7944 19.6768C1.62296 20.0253 1.22019 20.2139 0.825452 20.1303C0.430717 20.0467 0.149902 19.7135 0.149902 19.3286C0.149902 14.2335 1.46689 10.9431 3.54276 8.9306C5.37901 7.15036 7.69749 6.47784 9.8961 6.34521V0.971251C9.8961 0.62989 10.118 0.324123 10.4534 0.203228ZM11.622 3.13985V7.14086C11.622 7.59442 11.2356 7.96211 10.759 7.96211C8.59386 7.96211 6.4173 8.48843 4.77441 10.0812C3.53423 11.2835 2.51708 13.172 2.09113 16.1047C2.96781 15.0774 3.9412 14.2999 4.98445 13.7284C6.83283 12.716 8.8308 12.3883 10.759 12.3883C11.2356 12.3883 11.622 12.7559 11.622 13.2095V17.16L18.1351 10.1499L11.622 3.13985Z" fill="#DA9543"/>
</svg>
