<svg width="19" height="23" viewBox="0 0 19 23" fill="none" xmlns="http://www.w3.org/2000/svg">
<path fill-rule="evenodd" clip-rule="evenodd" d="M9.24701 1.5C5.75201 1.5 3.31601 4.238 3.31601 6.695C3.31601 8.774 2.73901 9.735 2.22901 10.583C1.82001 11.264 1.49701 11.802 1.49701 12.971C1.66401 14.857 2.90901 15.848 9.24701 15.848C15.55 15.848 16.834 14.813 17 12.906C16.997 11.802 16.674 11.264 16.265 10.583C15.755 9.735 15.178 8.774 15.178 6.695C15.178 4.238 12.742 1.5 9.24701 1.5ZM9.24701 17.348C4.57101 17.348 0.345013 17.018 1.33547e-05 13.035C-0.00298665 11.387 0.500013 10.549 0.944013 9.811C1.39301 9.063 1.81601 8.358 1.81601 6.695C1.81601 3.462 4.80201 0 9.24701 0C13.692 0 16.678 3.462 16.678 6.695C16.678 8.358 17.101 9.063 17.55 9.811C17.994 10.549 18.497 11.387 18.497 12.971C18.148 17.018 13.923 17.348 9.24701 17.348Z" fill="#808191"/>
<path fill-rule="evenodd" clip-rule="evenodd" d="M8.19827 22.5H8.19627C7.07527 22.499 6.01427 22.005 5.20927 21.108C4.93227 20.801 4.95727 20.326 5.26527 20.05C5.57327 19.772 6.04727 19.797 6.32427 20.106C6.84227 20.683 7.50727 21 8.19727 21H8.19827C8.89127 21 9.55927 20.683 10.0783 20.105C10.3563 19.798 10.8303 19.773 11.1373 20.05C11.4453 20.327 11.4703 20.802 11.1933 21.109C10.3853 22.006 9.32227 22.5 8.19827 22.5Z" fill="#808191"/>
</svg>
