<svg width="16" height="20" viewBox="0 0 16 20" fill="none" xmlns="http://www.w3.org/2000/svg">
<path fill-rule="evenodd" clip-rule="evenodd" d="M4.2897 1.52181C2.7349 1.52181 1.4447 2.87284 1.40811 4.53898V15.4429C1.3809 17.101 2.60729 18.4621 4.14051 18.4902L4.27938 18.4892H11.7972C13.338 18.4711 14.5944 17.105 14.5925 15.4439V6.38432L10.2434 1.52181H4.2897ZM4.12737 20.0003C1.80689 19.957 -0.0387901 17.9063 0.000619542 15.4298V4.52086C0.0541041 2.02316 1.97579 0.0117188 4.28689 0.0117188H10.5427C10.7341 0.0117188 10.9171 0.0952773 11.0503 0.243267L15.8039 5.55779C15.9296 5.69773 16 5.88599 16 6.08029V15.4429C16.0037 17.9285 14.1215 19.9732 11.8047 19.9993L4.12737 20.0003Z" fill="#D2D2D2"/>
<path fill-rule="evenodd" clip-rule="evenodd" d="M15.2922 7.031H12.708C10.99 7.02597 9.59375 5.52393 9.59375 3.68362V0.755047C9.59375 0.338261 9.90903 0 10.2975 0C10.686 0 11.0012 0.338261 11.0012 0.755047V3.68362C11.0012 4.69438 11.7678 5.51789 12.7099 5.52091H15.2922C15.6807 5.52091 15.9959 5.85917 15.9959 6.27595C15.9959 6.69274 15.6807 7.031 15.2922 7.031Z" fill="#D2D2D2"/>
<path fill-rule="evenodd" clip-rule="evenodd" d="M10.1268 12.5804H5.52992C5.14145 12.5804 4.82617 12.2421 4.82617 11.8254C4.82617 11.4086 5.14145 11.0703 5.52992 11.0703H10.1268C10.5152 11.0703 10.8305 11.4086 10.8305 11.8254C10.8305 12.2421 10.5152 12.5804 10.1268 12.5804Z" fill="#D2D2D2"/>
</svg>
