<svg width="24" height="24" viewBox="0 0 24 24" fill="none" xmlns="http://www.w3.org/2000/svg">
<path fill-rule="evenodd" clip-rule="evenodd" d="M2.88743 21.0336H7.48825C8.07552 21.0336 8.6257 20.8096 9.04143 20.3997L20.6462 8.95743C21.1222 8.4881 21.385 7.86334 21.385 7.19896C21.385 6.53305 21.1222 5.90677 20.6462 5.43743L18.7654 3.58296C17.781 2.61534 16.1799 2.61534 15.1939 3.58296L3.6447 14.9704C3.24443 15.3651 3.01725 15.8892 3.00334 16.4454L2.88743 21.0336ZM7.48778 23.3193H1.69851C1.38633 23.3193 1.08651 23.1944 0.868598 22.9734C0.650689 22.754 0.531689 22.4569 0.539417 22.1475L0.684689 16.389C0.714053 15.2431 1.18233 14.1658 2.00451 13.3536H2.00605L13.5552 1.96619C15.4438 0.107137 18.5146 0.107137 20.4031 1.96619L22.284 3.82066C23.2004 4.72276 23.7042 5.922 23.7027 7.19895C23.7027 8.4759 23.1989 9.67361 22.284 10.5742L10.6791 22.0165C9.8276 22.8561 8.69324 23.3193 7.48778 23.3193Z" fill="#D2D2D2"/>
<path fill-rule="evenodd" clip-rule="evenodd" d="M19.6752 12.6348C19.3785 12.6348 19.0818 12.5236 18.8561 12.2996L11.7996 5.34188C11.3468 4.8954 11.3468 4.17159 11.7996 3.72512C12.2524 3.27864 12.9849 3.27864 13.4378 3.72512L20.4943 10.6844C20.9471 11.1308 20.9471 11.8531 20.4943 12.2996C20.2687 12.5236 19.9719 12.6348 19.6752 12.6348Z" fill="#D2D2D2"/>
</svg>
