<svg width="16" height="15" viewBox="0 0 16 15" fill="none" xmlns="http://www.w3.org/2000/svg">
<path d="M1.03495 1.3199H14.9436C15.0855 1.3199 15.2216 1.26354 15.3219 1.16322C15.4222 1.06289 15.4786 0.926827 15.4786 0.78495C15.4786 0.643072 15.4222 0.507006 15.3219 0.406683C15.2216 0.306361 15.0855 0.25 14.9436 0.25H1.03495C0.893072 0.25 0.757006 0.306361 0.656683 0.406683C0.556361 0.507006 0.5 0.643072 0.5 0.78495C0.5 0.926827 0.556361 1.06289 0.656683 1.16322C0.757006 1.26354 0.893072 1.3199 1.03495 1.3199Z" fill="#D2D2D2"/>
<path d="M1.03495 4.52959H10.1291C10.271 4.52959 10.407 4.47323 10.5074 4.3729C10.6077 4.27258 10.664 4.13651 10.664 3.99464C10.664 3.85276 10.6077 3.71669 10.5074 3.61637C10.407 3.51605 10.271 3.45969 10.1291 3.45969H1.03495C0.893072 3.45969 0.757006 3.51605 0.656683 3.61637C0.556361 3.71669 0.5 3.85276 0.5 3.99464C0.5 4.13651 0.556361 4.27258 0.656683 4.3729C0.757006 4.47323 0.893072 4.52959 1.03495 4.52959Z" fill="#D2D2D2"/>
<path d="M1.03495 7.73927H8.52425C8.66613 7.73927 8.80219 7.68291 8.90251 7.58259C9.00284 7.48227 9.0592 7.3462 9.0592 7.20432C9.0592 7.06244 9.00284 6.92638 8.90251 6.82606C8.80219 6.72573 8.66613 6.66937 8.52425 6.66937H1.03495C0.893072 6.66937 0.757006 6.72573 0.656683 6.82606C0.556361 6.92638 0.5 7.06244 0.5 7.20432C0.5 7.3462 0.556361 7.48227 0.656683 7.58259C0.757006 7.68291 0.893072 7.73927 1.03495 7.73927Z" fill="#D2D2D2"/>
<path d="M5.8495 9.87909H1.03495C0.893072 9.87909 0.757006 9.93545 0.656683 10.0358C0.556361 10.1361 0.5 10.2722 0.5 10.414C0.5 10.5559 0.556361 10.692 0.656683 10.7923C0.757006 10.8926 0.893072 10.949 1.03495 10.949H5.8495C5.99138 10.949 6.12744 10.8926 6.22776 10.7923C6.32809 10.692 6.38445 10.5559 6.38445 10.414C6.38445 10.2722 6.32809 10.1361 6.22776 10.0358C6.12744 9.93545 5.99138 9.87909 5.8495 9.87909Z" fill="#D2D2D2"/>
<path d="M5.8495 13.0888H1.03495C0.893072 13.0888 0.757006 13.1452 0.656683 13.2455C0.556361 13.3458 0.5 13.4819 0.5 13.6238C0.5 13.7656 0.556361 13.9017 0.656683 14.002C0.757006 14.1023 0.893072 14.1587 1.03495 14.1587H5.8495C5.99138 14.1587 6.12744 14.1023 6.22776 14.002C6.32809 13.9017 6.38445 13.7656 6.38445 13.6238C6.38445 13.4819 6.32809 13.3458 6.22776 13.2455C6.12744 13.1452 5.99138 13.0888 5.8495 13.0888Z" fill="#D2D2D2"/>
<path d="M15.1477 4.90943L13.1148 4.06956C12.9641 4.00728 12.8004 3.983 12.6381 3.99886C12.4758 4.01471 12.3199 4.07023 12.184 4.16051C12.0453 4.256 11.9319 4.38383 11.8536 4.53295C11.7753 4.68207 11.7345 4.848 11.7347 5.01642V11.484C11.7347 11.8014 11.6406 12.1117 11.4642 12.3756C11.2879 12.6395 11.0372 12.8452 10.744 12.9667C10.4507 13.0881 10.128 13.1199 9.81674 13.058C9.50543 12.9961 9.21947 12.8432 8.99503 12.6188C8.77059 12.3943 8.61774 12.1084 8.55582 11.7971C8.49389 11.4857 8.52567 11.1631 8.64714 10.8698C8.76861 10.5766 8.97431 10.3259 9.23822 10.1496C9.50214 9.97324 9.81242 9.87912 10.1298 9.87912C10.2717 9.87912 10.4078 9.82276 10.5081 9.72244C10.6084 9.62211 10.6648 9.48605 10.6648 9.34417C10.6648 9.20229 10.6084 9.06622 10.5081 8.9659C10.4078 8.86558 10.2717 8.80922 10.1298 8.80922C9.60081 8.80922 9.08368 8.96609 8.64382 9.26C8.20396 9.5539 7.86113 9.97164 7.65868 10.4604C7.45624 10.9491 7.40327 11.4869 7.50647 12.0058C7.60968 12.5246 7.86443 13.0012 8.2385 13.3753C8.61257 13.7494 9.08916 14.0041 9.60801 14.1073C10.1269 14.2105 10.6647 14.1576 11.1534 13.9551C11.6422 13.7527 12.0599 13.4098 12.3538 12.97C12.6477 12.5301 12.8046 12.013 12.8046 11.484V5.09132L14.7625 5.89909C14.8275 5.92579 14.8971 5.93942 14.9673 5.93922C15.0376 5.93901 15.1071 5.92497 15.1719 5.8979C15.2368 5.87083 15.2956 5.83125 15.3451 5.78143C15.3947 5.73161 15.4339 5.67253 15.4606 5.60754C15.4873 5.54256 15.5009 5.47296 15.5007 5.40271C15.5005 5.33246 15.4865 5.26293 15.4594 5.19811C15.4323 5.13328 15.3928 5.07442 15.3429 5.02489C15.2931 4.97536 15.234 4.93613 15.1691 4.90943H15.1477Z" fill="#D2D2D2"/>
</svg>
