<svg width="30" height="30" viewBox="0 0 30 30" fill="none" xmlns="http://www.w3.org/2000/svg">
<path fill-rule="evenodd" clip-rule="evenodd" d="M0 15.0087C0 6.72938 6.73263 0 15 0C23.2674 0 30 6.72938 30 15.0087C30 23.2706 23.2674 30 15 30C6.73263 30 0 23.2706 0 15.0087ZM20.5019 16.5268C20.6612 16.3676 20.8639 16.1216 20.9073 16.0637C21.139 15.7598 21.2548 15.3835 21.2548 15.0087C21.2548 14.5876 21.1245 14.1968 20.8784 13.8784C20.8582 13.8583 20.8187 13.8153 20.7672 13.7593C20.6709 13.6544 20.5327 13.504 20.4006 13.3719C19.2133 12.0984 16.1149 10.0145 14.4932 9.37771C14.2471 9.27786 13.6245 9.05933 13.2915 9.04486C12.973 9.04486 12.6689 9.11722 12.3793 9.26194C12.0174 9.46454 11.7278 9.78292 11.5685 10.1592C11.4672 10.4197 11.3079 11.2012 11.3079 11.2156C11.1486 12.0695 11.0618 13.4588 11.0618 14.9928C11.0618 16.4559 11.1486 17.7858 11.279 18.6541C11.2825 18.6577 11.295 18.7198 11.3143 18.8163C11.3732 19.1096 11.4957 19.7206 11.6264 19.9711C11.945 20.5789 12.5676 20.9551 13.2336 20.9551H13.2915C13.7259 20.9407 14.638 20.5644 14.638 20.5499C16.1728 19.9132 19.1988 17.9305 20.4151 16.6136L20.5019 16.5268Z" fill="#808191"/>
</svg>
