<svg width="17" height="16" viewBox="0 0 17 16" fill="none" xmlns="http://www.w3.org/2000/svg">
<path d="M9.2667 1.25C5.93403 1.25345 3.19236 3.73762 3.03971 6.89216L1.40215 9.21922C1.25861 9.42094 1.21395 9.67155 1.27963 9.90674C1.34531 10.1419 1.51493 10.3388 1.74498 10.4469L3.03347 11.0527V12.6406C3.03347 13.8056 4.03016 14.75 5.25963 14.75H7.48497C8.96033 14.75 10.1572 13.6167 10.1572 12.2188V8.61003C9.4591 8.22815 9.11877 7.4496 9.32739 6.71186C9.53601 5.97411 10.2416 5.46112 11.0476 5.46112C11.8537 5.46112 12.5592 5.97411 12.7679 6.71186C12.9765 7.4496 12.6362 8.22815 11.9381 8.61003V12.2188C11.9348 13.1346 11.6138 14.024 11.0245 14.75H12.8286C13.3203 14.75 13.719 14.3722 13.719 13.9063V11.2813C15.4753 9.58414 15.9854 7.05406 15.0129 4.86296C14.0404 2.67187 11.7753 1.24766 9.2667 1.25Z" stroke="#DA9543" stroke-width="1.4"/>
</svg>
