<svg width="242" height="59" viewBox="0 0 242 59" fill="none" xmlns="http://www.w3.org/2000/svg">
<path d="M15.168 47.672C12.448 47.672 9.808 47.336 7.248 46.664C4.688 45.992 2.608 45.096 1.008 43.976L4.128 36.968C5.632 37.96 7.376 38.76 9.36 39.368C11.344 39.976 13.296 40.28 15.216 40.28C18.864 40.28 20.688 39.368 20.688 37.544C20.688 36.584 20.16 35.88 19.104 35.432C18.08 34.952 16.416 34.456 14.112 33.944C11.584 33.4 9.472 32.824 7.776 32.216C6.08 31.576 4.624 30.568 3.408 29.192C2.192 27.816 1.584 25.96 1.584 23.624C1.584 21.576 2.144 19.736 3.264 18.104C4.384 16.44 6.048 15.128 8.256 14.168C10.496 13.208 13.232 12.728 16.464 12.728C18.672 12.728 20.848 12.984 22.992 13.496C25.136 13.976 27.024 14.696 28.656 15.656L25.728 22.712C22.528 20.984 19.424 20.12 16.416 20.12C14.528 20.12 13.152 20.408 12.288 20.984C11.424 21.528 10.992 22.248 10.992 23.144C10.992 24.04 11.504 24.712 12.528 25.16C13.552 25.608 15.2 26.072 17.472 26.552C20.032 27.096 22.144 27.688 23.808 28.328C25.504 28.936 26.96 29.928 28.176 31.304C29.424 32.648 30.048 34.488 30.048 36.824C30.048 38.84 29.488 40.664 28.368 42.296C27.248 43.928 25.568 45.24 23.328 46.232C21.088 47.192 18.368 47.672 15.168 47.672ZM42.9421 20.744V28.136H57.7741V35.48H42.9421V47H33.4381V13.4H59.7901V20.744H42.9421ZM90.211 39.656V47H63.235V13.4H89.587V20.744H72.643V26.408H87.571V33.512H72.643V39.656H90.211ZM109.173 38.072H103.989V47H94.485V13.4H109.845C112.885 13.4 115.525 13.912 117.765 14.936C120.005 15.928 121.733 17.368 122.949 19.256C124.165 21.112 124.773 23.304 124.773 25.832C124.773 28.264 124.197 30.392 123.045 32.216C121.925 34.008 120.309 35.416 118.197 36.44L125.445 47H115.269L109.173 38.072ZM115.173 25.832C115.173 24.264 114.677 23.048 113.685 22.184C112.693 21.32 111.221 20.888 109.269 20.888H103.989V30.728H109.269C111.221 30.728 112.693 30.312 113.685 29.48C114.677 28.616 115.173 27.4 115.173 25.832ZM145.96 47.672C142.408 47.672 139.208 46.92 136.36 45.416C133.544 43.912 131.32 41.832 129.688 39.176C128.088 36.52 127.288 33.528 127.288 30.2C127.288 26.872 128.088 23.88 129.688 21.224C131.32 18.568 133.544 16.488 136.36 14.984C139.208 13.48 142.408 12.728 145.96 12.728C149.512 12.728 152.696 13.48 155.512 14.984C158.36 16.488 160.584 18.568 162.184 21.224C163.816 23.88 164.632 26.872 164.632 30.2C164.632 33.528 163.816 36.52 162.184 39.176C160.584 41.832 158.36 43.912 155.512 45.416C152.696 46.92 149.512 47.672 145.96 47.672ZM145.96 39.8C147.656 39.8 149.192 39.4 150.568 38.6C151.944 37.8 153.032 36.68 153.832 35.24C154.632 33.768 155.032 32.088 155.032 30.2C155.032 28.312 154.632 26.648 153.832 25.208C153.032 23.736 151.944 22.6 150.568 21.8C149.192 21 147.656 20.6 145.96 20.6C144.264 20.6 142.728 21 141.352 21.8C139.976 22.6 138.888 23.736 138.088 25.208C137.288 26.648 136.888 28.312 136.888 30.2C136.888 32.088 137.288 33.768 138.088 35.24C138.888 36.68 139.976 37.8 141.352 38.6C142.728 39.4 144.264 39.8 145.96 39.8ZM176.054 47.672C172.502 47.672 169.302 46.92 166.454 45.416C163.638 43.912 161.414 41.832 159.782 39.176C158.182 36.52 157.382 33.528 157.382 30.2C157.382 26.872 158.182 23.88 159.782 21.224C161.414 18.568 163.638 16.488 166.454 14.984C169.302 13.48 172.502 12.728 176.054 12.728C179.606 12.728 182.79 13.48 185.606 14.984C188.454 16.488 190.678 18.568 192.278 21.224C193.91 23.88 194.726 26.872 194.726 30.2C194.726 33.528 193.91 36.52 192.278 39.176C190.678 41.832 188.454 43.912 185.606 45.416C182.79 46.92 179.606 47.672 176.054 47.672ZM176.054 39.8C177.75 39.8 179.286 39.4 180.662 38.6C182.038 37.8 183.126 36.68 183.926 35.24C184.726 33.768 185.126 32.088 185.126 30.2C185.126 28.312 184.726 26.648 183.926 25.208C183.126 23.736 182.038 22.6 180.662 21.8C179.286 21 177.75 20.6 176.054 20.6C174.358 20.6 172.822 21 171.446 21.8C170.07 22.6 168.982 23.736 168.182 25.208C167.382 26.648 166.982 28.312 166.982 30.2C166.982 32.088 167.382 33.768 168.182 35.24C168.982 36.68 170.07 37.8 171.446 38.6C172.822 39.4 174.358 39.8 176.054 39.8ZM229.04 47L228.944 29.192L220.304 43.688H216.08L207.488 29.672V47H198.704V13.4H206.528L218.336 32.792L229.856 13.4H237.68L237.776 47H229.04Z" fill="white"/>
<circle cx="150.5" cy="30.5" r="5.5" fill="white"/>
<circle cx="180.5" cy="30.5" r="5.5" fill="white"/>
</svg>
