<svg width="18" height="16" viewBox="0 0 18 16" fill="none" xmlns="http://www.w3.org/2000/svg">
<path d="M14.8221 0.928589H6.64286C6.48657 0.928589 6.33668 0.990674 6.22617 1.10119C6.11566 1.2117 6.05357 1.36159 6.05357 1.51787C6.05357 1.67416 6.11566 1.82405 6.22617 1.93456C6.33668 2.04508 6.48657 2.10716 6.64286 2.10716H14.8221C14.9867 2.10716 15.1496 2.13967 15.3016 2.20282C15.4535 2.26597 15.5915 2.35852 15.7076 2.47515C15.8237 2.59178 15.9156 2.7302 15.978 2.88245C16.0405 3.0347 16.0722 3.19779 16.0714 3.36234V12.6436C16.0714 12.9749 15.9398 13.2927 15.7055 13.527C15.4712 13.7613 15.1535 13.8929 14.8221 13.8929H4.875V1.51787C4.875 1.36159 4.81291 1.2117 4.7024 1.10119C4.59189 0.990674 4.442 0.928589 4.28571 0.928589H3.18375C2.53828 0.928589 1.91925 1.185 1.46283 1.64142C1.00641 2.09783 0.75 2.71687 0.75 3.36234V12.6436C0.75156 13.288 1.00866 13.9056 1.46491 14.3607C1.92116 14.8158 2.5393 15.0714 3.18375 15.0714H14.8221C15.4656 15.0699 16.0822 14.8136 16.5372 14.3586C16.9922 13.9037 17.2484 13.287 17.25 12.6436V3.36234C17.25 2.71789 16.9944 2.09975 16.5393 1.6435C16.0841 1.18725 15.4666 0.930149 14.8221 0.928589ZM1.92857 12.6436V3.36234C1.92857 3.19751 1.96104 3.03429 2.02412 2.882C2.08719 2.72972 2.17965 2.59135 2.2962 2.47479C2.5316 2.2394 2.85086 2.10716 3.18375 2.10716H3.69643V13.8929H3.18375C3.0192 13.8937 2.85611 13.8619 2.70386 13.7995C2.55161 13.737 2.41319 13.6451 2.29656 13.5291C2.17993 13.413 2.08738 13.275 2.02423 13.123C1.96108 12.9711 1.92857 12.8081 1.92857 12.6436Z" fill="#D2D2D2"/>
<path d="M8.69994 9.00177C8.83817 8.95251 8.95305 8.85345 9.0221 8.72397C9.09116 8.59448 9.10941 8.4439 9.0733 8.30166C9.03719 8.15943 8.94931 8.03579 8.82686 7.95493C8.7044 7.87406 8.55618 7.8418 8.41119 7.86445C7.98752 7.97408 7.60274 8.19948 7.29993 8.51542C6.99713 8.83136 6.78825 9.22536 6.69669 9.65329C6.60514 10.0812 6.63452 10.5262 6.78155 10.9384C6.92858 11.3506 7.18746 11.7137 7.52918 11.9871C7.8709 12.2604 8.28198 12.4333 8.71639 12.4862C9.15079 12.5392 9.59136 12.4702 9.98876 12.2869C10.3862 12.1037 10.7247 11.8134 10.9665 11.4486C11.2082 11.0839 11.3437 10.659 11.3576 10.2216C11.3576 10.2216 11.3576 10.1862 11.3576 10.1627V5.10659L13.5144 5.99641C13.586 6.02582 13.6627 6.04084 13.74 6.04061C13.8174 6.04039 13.894 6.02492 13.9654 5.9951C14.0368 5.96528 14.1017 5.92168 14.1562 5.8668C14.2108 5.81192 14.254 5.74683 14.2834 5.67525C14.3128 5.60367 14.3278 5.527 14.3276 5.44961C14.3274 5.37222 14.3119 5.29564 14.2821 5.22423C14.2523 5.15282 14.2087 5.08798 14.1538 5.03342C14.0989 4.97886 14.0338 4.93564 13.9623 4.90623L11.723 3.98106C11.5568 3.91173 11.3759 3.88512 11.1968 3.90364C11.0177 3.92217 10.8461 3.98525 10.6976 4.08713C10.5434 4.18574 10.4156 4.32046 10.3253 4.47962C10.2349 4.63879 10.1847 4.81758 10.179 5.00052V9.45552C10.1228 9.57497 10.1082 9.70986 10.1378 9.83856C10.178 9.98827 10.1883 10.1445 10.1681 10.2982C10.1479 10.4519 10.0975 10.6001 10.0199 10.7343C9.94207 10.8684 9.83848 10.9859 9.71511 11.08C9.59174 11.174 9.45102 11.2428 9.30101 11.2823C9.0756 11.342 8.83755 11.3334 8.61699 11.2578C8.39643 11.1821 8.20328 11.0427 8.06196 10.8572C7.92065 10.6718 7.83753 10.4485 7.82312 10.2158C7.80871 9.98307 7.86366 9.7513 7.98101 9.5498C8.05888 9.41564 8.16247 9.29816 8.28584 9.20412C8.40921 9.11007 8.54994 9.04131 8.69994 9.00177Z" fill="#D2D2D2"/>
</svg>
