<svg width="12" height="12" viewBox="0 0 12 12" fill="none" xmlns="http://www.w3.org/2000/svg">
<path d="M9.26277 9.73626C8.91241 9.38461 8.91241 8.85714 9.26277 8.50549C10.6642 7.0989 10.6642 4.9011 9.26277 3.49451C8.91241 3.14286 8.91241 2.61538 9.26277 2.26374C9.61314 1.91209 10.1387 1.91209 10.4891 2.26374C12.5036 4.28571 12.5036 7.62637 10.4891 9.73626C10.2263 10.0879 9.61314 10.0879 9.26277 9.73626Z" fill="#808191"/>
<path d="M8 0.752159C8 0.150547 7.34545 -0.225461 6.83636 0.150547L2.69091 3.00821H0.727273C0.290909 3.00821 0 3.30901 0 3.76022V8.27232C0 8.72353 0.290909 9.02433 0.727273 9.02433H2.69091L6.83636 11.882C7.34545 12.1828 8 11.882 8 11.2804V0.752159Z" fill="#808191"/>
</svg>
