<svg width="22" height="22" viewBox="0 0 22 22" fill="none" xmlns="http://www.w3.org/2000/svg">
  <path fill-rule="evenodd" clip-rule="evenodd" d="M6.12109 16.5625C5.70709 16.5625 5.37109 16.2265 5.37109 15.8125V8.95251C5.37109 8.53851 5.70709 8.20251 6.12109 8.20251C6.53509 8.20251 6.87109 8.53851 6.87109 8.95251V15.8125C6.87109 16.2265 6.53509 16.5625 6.12109 16.5625Z" fill="#DA9543"/>
  <path fill-rule="evenodd" clip-rule="evenodd" d="M10.7881 16.5615C10.3741 16.5615 10.0381 16.2255 10.0381 15.8115V5.66849C10.0381 5.25449 10.3741 4.91849 10.7881 4.91849C11.2021 4.91849 11.5381 5.25449 11.5381 5.66849V15.8115C11.5381 16.2255 11.2021 16.5615 10.7881 16.5615Z" fill="#DA9543"/>
  <path fill-rule="evenodd" clip-rule="evenodd" d="M15.3784 16.5615C14.9644 16.5615 14.6284 16.2255 14.6284 15.8115V12.5775C14.6284 12.1635 14.9644 11.8275 15.3784 11.8275C15.7924 11.8275 16.1284 12.1635 16.1284 12.5775V15.8115C16.1284 16.2255 15.7924 16.5615 15.3784 16.5615Z" fill="#DA9543"/>
  <path fill-rule="evenodd" clip-rule="evenodd" d="M6.064 1.5C3.292 1.5 1.5 3.397 1.5 6.335V15.165C1.5 18.103 3.292 20 6.064 20H15.436C18.209 20 20 18.103 20 15.165V6.335C20 3.397 18.209 1.5 15.436 1.5H6.064ZM15.436 21.5H6.064C2.437 21.5 0 18.954 0 15.165V6.335C0 2.546 2.437 0 6.064 0H15.436C19.063 0 21.5 2.546 21.5 6.335V15.165C21.5 18.954 19.063 21.5 15.436 21.5Z" fill="#DA9543"/>
</svg>


