<svg width="21" height="20" viewBox="0 0 21 20" fill="none" xmlns="http://www.w3.org/2000/svg">
<path fill-rule="evenodd" clip-rule="evenodd" d="M7.61356 1.05374C7.78404 0.883255 8.01527 0.787476 8.25638 0.787476H20.0211C20.2622 0.787476 20.4934 0.883255 20.6639 1.05374C20.8344 1.22423 20.9302 1.45546 20.9302 1.69657V15.6003C20.9302 16.4147 20.6887 17.2108 20.2362 17.8879C19.7838 18.5651 19.1407 19.0929 18.3883 19.4045C17.6359 19.7162 16.808 19.7977 16.0092 19.6388C15.2105 19.48 14.4768 19.0878 13.9009 18.5119C13.325 17.9361 12.9329 17.2024 12.774 16.4036C12.6151 15.6049 12.6967 14.777 13.0083 14.0246C13.32 13.2721 13.8477 12.6291 14.5249 12.1766C15.2019 11.7242 15.9978 11.4827 16.8121 11.4827C17.5365 11.4865 18.2468 11.6836 18.8696 12.0537L19.112 12.1978V7.95325H9.16547V15.6003C9.16547 16.4147 8.92397 17.2108 8.47152 17.8879C8.01907 18.5651 7.37598 19.0929 6.62358 19.4045C5.87118 19.7162 5.04326 19.7977 4.24451 19.6388C3.44577 19.48 2.71207 19.0878 2.13621 18.5119C1.56035 17.9361 1.16818 17.2024 1.0093 16.4036C0.850417 15.6049 0.93196 14.777 1.24361 14.0246C1.55527 13.2721 2.08304 12.6291 2.76018 12.1766C3.4372 11.7242 4.23315 11.4827 5.04739 11.4827C5.77183 11.4865 6.48212 11.6836 7.1049 12.0537L7.34729 12.1978V1.69657C7.34729 1.45546 7.44307 1.22423 7.61356 1.05374ZM19.112 2.40747H9.16547V6.3729H19.112V2.40747ZM5.07249 12.9662C3.60137 12.9662 2.40878 14.1587 2.40878 15.6299C2.40878 17.101 3.60137 18.2936 5.07249 18.2936C6.54362 18.2936 7.73621 17.101 7.73621 15.6299C7.73621 14.1587 6.54362 12.9662 5.07249 12.9662ZM16.8429 12.9662C15.3718 12.9662 14.1792 14.1587 14.1792 15.6299C14.1792 17.101 15.3718 18.2936 16.8429 18.2936C18.3141 18.2936 19.5067 17.101 19.5067 15.6299C19.5067 14.1587 18.3141 12.9662 16.8429 12.9662Z" fill="#DA9543"/>
</svg>
