<svg width="18" height="20" viewBox="0 0 18 20" fill="none" xmlns="http://www.w3.org/2000/svg">
<path fill-rule="evenodd" clip-rule="evenodd" d="M4.57166 1.51129C2.91466 1.51129 1.53966 2.85329 1.50066 4.50829V15.3393C1.47166 16.9863 2.77866 18.3383 4.41266 18.3663L4.56066 18.3653H12.5727C14.2147 18.3473 15.5537 16.9903 15.5517 15.3403V6.34129L10.9167 1.51129H4.57166ZM4.39866 19.8663C1.92566 19.8233 -0.0413397 17.7863 0.000660263 15.3263V4.49029C0.0576603 2.00929 2.10566 0.0112915 4.56866 0.0112915H11.2357C11.4397 0.0112915 11.6347 0.0942915 11.7767 0.241292L16.8427 5.52029C16.9767 5.65929 17.0517 5.84629 17.0517 6.03929V15.3393C17.0557 17.8083 15.0497 19.8393 12.5807 19.8653L4.39866 19.8663Z" fill="#DA9543"/>
<path fill-rule="evenodd" clip-rule="evenodd" d="M16.2964 6.984H13.5424C11.7114 6.979 10.2234 5.487 10.2234 3.659V0.75C10.2234 0.336 10.5594 0 10.9734 0C11.3874 0 11.7234 0.336 11.7234 0.75V3.659C11.7234 4.663 12.5404 5.481 13.5444 5.484H16.2964C16.7104 5.484 17.0464 5.82 17.0464 6.234C17.0464 6.648 16.7104 6.984 16.2964 6.984Z" fill="#DA9543"/>
<path fill-rule="evenodd" clip-rule="evenodd" d="M10.7923 12.4967H5.89331C5.47931 12.4967 5.14331 12.1607 5.14331 11.7467C5.14331 11.3327 5.47931 10.9967 5.89331 10.9967H10.7923C11.2063 10.9967 11.5423 11.3327 11.5423 11.7467C11.5423 12.1607 11.2063 12.4967 10.7923 12.4967Z" fill="#DA9543"/>
</svg>
