<svg width="24" height="24" viewBox="0 0 24 24" fill="none" xmlns="http://www.w3.org/2000/svg">
<path fill-rule="evenodd" clip-rule="evenodd" d="M19.997 21H4.003C2.898 21 2.003 20.105 2.003 19V5C2.003 3.895 2.898 3 4.003 3H19.997C21.102 3 21.997 3.895 21.997 5V19C21.997 20.105 21.101 21 19.997 21Z" stroke="#808191" stroke-width="1.5" stroke-linecap="round" stroke-linejoin="round"/>
<path d="M22 15.9999L17.781 12.6249C17.35 12.2799 16.72 12.3499 16.375 12.7809L13.039 16.9509C12.694 17.3819 12.065 17.4519 11.633 17.1069L9.765 15.6119C9.34 15.2719 8.721 15.3339 8.372 15.7529L4 20.9999" stroke="#808191" stroke-width="1.5" stroke-linecap="round" stroke-linejoin="round"/>
<path d="M9.06 12.5002V8.50024" stroke="#808191" stroke-width="1.5" stroke-linecap="round" stroke-linejoin="round"/>
<path d="M9.03 7.00003L7 9.03003" stroke="#808191" stroke-width="1.5" stroke-linecap="round" stroke-linejoin="round"/>
<path d="M10.94 8.9104L9.03003 7.0004" stroke="#808191" stroke-width="1.5" stroke-linecap="round" stroke-linejoin="round"/>
</svg>
