<svg width="20" height="20" viewBox="0 0 20 20" fill="none" xmlns="http://www.w3.org/2000/svg">
<path d="M11.0177 1.01796C11.0177 0.455758 10.5619 0 9.99971 0C9.4375 0 8.98174 0.455758 8.98174 1.01796V8.98204H1.01796C0.455758 8.98204 0 9.43779 0 10C0 10.5622 0.455758 11.018 1.01796 11.018H8.98174V18.982C8.98174 19.5442 9.4375 20 9.99971 20C10.5619 20 11.0177 19.5442 11.0177 18.982V11.018H18.982C19.5442 11.018 20 10.5622 20 10C20 9.43779 19.5442 8.98204 18.982 8.98204H11.0177V1.01796Z" fill="#DA9543"/>
</svg>
