<svg width="16" height="16" viewBox="0 0 16 16" fill="none" xmlns="http://www.w3.org/2000/svg">
<mask id="mask0" mask-type="alpha" maskUnits="userSpaceOnUse" x="0" y="5" width="16" height="11">
<path fill-rule="evenodd" clip-rule="evenodd" d="M0.5 5.09556H15.4997V15.4036H0.5V5.09556Z" fill="white"/>
</mask>
<g mask="url(#mask0)">
<path fill-rule="evenodd" clip-rule="evenodd" d="M12.1737 15.4036H3.82625C1.9925 15.4036 0.5 13.9118 0.5 12.0773V8.42106C0.5 6.58731 1.9925 5.09556 3.82625 5.09556H4.526C4.8365 5.09556 5.0885 5.34756 5.0885 5.65806C5.0885 5.96856 4.8365 6.22056 4.526 6.22056H3.82625C2.612 6.22056 1.625 7.20756 1.625 8.42106V12.0773C1.625 13.2916 2.612 14.2786 3.82625 14.2786H12.1737C13.3872 14.2786 14.375 13.2916 14.375 12.0773V8.41431C14.375 7.20456 13.391 6.22056 12.182 6.22056H11.4748C11.1643 6.22056 10.9123 5.96856 10.9123 5.65806C10.9123 5.34756 11.1643 5.09556 11.4748 5.09556H12.182C14.0113 5.09556 15.5 6.58431 15.5 8.41431V12.0773C15.5 13.9118 14.0075 15.4036 12.1737 15.4036Z" fill="white"/>
</g>
<mask id="mask1" mask-type="alpha" maskUnits="userSpaceOnUse" x="7" y="0" width="2" height="11">
<path fill-rule="evenodd" clip-rule="evenodd" d="M7.4375 6.10352e-05H8.5625V10.1557H7.4375V6.10352e-05Z" fill="white"/>
</mask>
<g mask="url(#mask1)">
<path fill-rule="evenodd" clip-rule="evenodd" d="M8 10.1557C7.6895 10.1557 7.4375 9.90374 7.4375 9.59324V0.562492C7.4375 0.251992 7.6895 -7.62939e-06 8 -7.62939e-06C8.3105 -7.62939e-06 8.5625 0.251992 8.5625 0.562492V9.59324C8.5625 9.90374 8.3105 10.1557 8 10.1557Z" fill="white"/>
</g>
<path fill-rule="evenodd" clip-rule="evenodd" d="M5.81329 3.32151C5.67004 3.32151 5.52604 3.26676 5.41654 3.15726C5.19679 2.93826 5.19529 2.58276 5.41504 2.36226L7.60129 0.166264C7.81204 -0.0459862 8.18704 -0.0459862 8.39779 0.166264L10.5848 2.36226C10.8038 2.58276 10.803 2.93826 10.5833 3.15726C10.3628 3.37626 10.0073 3.37626 9.78829 3.15576L7.99954 1.36026L6.21154 3.15576C6.10204 3.26676 5.95729 3.32151 5.81329 3.32151Z" fill="white"/>
</svg>
