<svg width="19" height="20" viewBox="0 0 19 20" fill="none" xmlns="http://www.w3.org/2000/svg">
<path fill-rule="evenodd" clip-rule="evenodd" d="M9.24733 20C7.89233 20 6.57133 19.985 5.26433 19.958C3.59233 19.925 2.43533 18.841 2.24633 17.129C1.93133 14.289 1.39233 7.59503 1.38733 7.52803C1.35333 7.11503 1.66133 6.75303 2.07433 6.72003C2.48133 6.70903 2.84933 6.99503 2.88233 7.40703C2.88733 7.47503 3.42533 14.146 3.73733 16.964C3.84433 17.937 4.36933 18.439 5.29533 18.458C7.79533 18.511 10.3463 18.514 13.0963 18.464C14.0803 18.445 14.6123 17.953 14.7223 16.957C15.0323 14.163 15.5723 7.47503 15.5783 7.40703C15.6113 6.99503 15.9763 6.70703 16.3853 6.72003C16.7983 6.75403 17.1063 7.11503 17.0733 7.52803C17.0673 7.59603 16.5253 14.307 16.2133 17.122C16.0193 18.869 14.8653 19.932 13.1233 19.964C11.7903 19.987 10.5043 20 9.24733 20Z" fill="#DA9543"/>
<path fill-rule="evenodd" clip-rule="evenodd" d="M17.708 4.98932H0.75C0.336 4.98932 0 4.65332 0 4.23932C0 3.82532 0.336 3.48932 0.75 3.48932H17.708C18.122 3.48932 18.458 3.82532 18.458 4.23932C18.458 4.65332 18.122 4.98932 17.708 4.98932Z" fill="#DA9543"/>
<path fill-rule="evenodd" clip-rule="evenodd" d="M14.4406 4.98931C13.3026 4.98931 12.3146 4.17831 12.0906 3.06231L11.8476 1.84631C11.7966 1.66131 11.5856 1.50031 11.3456 1.50031H7.11258C6.87258 1.50031 6.66158 1.66131 6.60058 1.89231L6.36758 3.06231C6.14458 4.17831 5.15558 4.98931 4.01758 4.98931C3.60358 4.98931 3.26758 4.65331 3.26758 4.23931C3.26758 3.8253 3.60358 3.48931 4.01758 3.48931C4.44358 3.48931 4.81358 3.18531 4.89758 2.76731L5.14058 1.55131C5.38758 0.619305 6.19458 0.000305176 7.11258 0.000305176H11.3456C12.2636 0.000305176 13.0706 0.619305 13.3076 1.50631L13.5616 2.76731C13.6446 3.18531 14.0146 3.48931 14.4406 3.48931C14.8546 3.48931 15.1906 3.8253 15.1906 4.23931C15.1906 4.65331 14.8546 4.98931 14.4406 4.98931Z" fill="#DA9543"/>
</svg>
