<svg width="20" height="21" viewBox="0 0 20 21" fill="none" xmlns="http://www.w3.org/2000/svg">
<mask id="mask0" mask-type="alpha" maskUnits="userSpaceOnUse" x="0" y="6" width="20" height="15">
<path fill-rule="evenodd" clip-rule="evenodd" d="M0 6.7941H19.9996V20.5381H0V6.7941Z" fill="white"/>
</mask>
<g mask="url(#mask0)">
<path fill-rule="evenodd" clip-rule="evenodd" d="M15.565 20.5381H4.435C1.99 20.5381 0 18.5491 0 16.1031V11.2281C0 8.7831 1.99 6.7941 4.435 6.7941H5.368C5.782 6.7941 6.118 7.1301 6.118 7.5441C6.118 7.9581 5.782 8.2941 5.368 8.2941H4.435C2.816 8.2941 1.5 9.6101 1.5 11.2281V16.1031C1.5 17.7221 2.816 19.0381 4.435 19.0381H15.565C17.183 19.0381 18.5 17.7221 18.5 16.1031V11.2191C18.5 9.6061 17.188 8.2941 15.576 8.2941H14.633C14.219 8.2941 13.883 7.9581 13.883 7.5441C13.883 7.1301 14.219 6.7941 14.633 6.7941H15.576C18.015 6.7941 20 8.7791 20 11.2191V16.1031C20 18.5491 18.01 20.5381 15.565 20.5381Z" fill="#D2D2D2"/>
</g>
<mask id="mask1" mask-type="alpha" maskUnits="userSpaceOnUse" x="9" y="0" width="2" height="14">
<path fill-rule="evenodd" clip-rule="evenodd" d="M9.25 9.15527e-05H10.75V13.541H9.25V9.15527e-05Z" fill="white"/>
</mask>
<g mask="url(#mask1)">
<path fill-rule="evenodd" clip-rule="evenodd" d="M10 13.541C9.586 13.541 9.25 13.205 9.25 12.791V0.75C9.25 0.336 9.586 0 10 0C10.414 0 10.75 0.336 10.75 0.75V12.791C10.75 13.205 10.414 13.541 10 13.541Z" fill="#D2D2D2"/>
</g>
<path fill-rule="evenodd" clip-rule="evenodd" d="M7.08471 4.42868C6.89371 4.42868 6.70171 4.35568 6.55571 4.20968C6.26271 3.91768 6.26071 3.44368 6.55371 3.14968L9.46871 0.22168C9.74971 -0.0613201 10.2497 -0.0613201 10.5307 0.22168L13.4467 3.14968C13.7387 3.44368 13.7377 3.91768 13.4447 4.20968C13.1507 4.50168 12.6767 4.50168 12.3847 4.20768L9.99971 1.81368L7.61571 4.20768C7.46971 4.35568 7.27671 4.42868 7.08471 4.42868Z" fill="#D2D2D2"/>
</svg>
