<svg width="18" height="18" viewBox="0 0 18 18" fill="none" xmlns="http://www.w3.org/2000/svg">
<path d="M1.5 7.50002V10.5C1.5 12 2.25 12.75 3.75 12.75H4.8225C5.1 12.75 5.3775 12.8325 5.6175 12.975L7.8075 14.3475C9.6975 15.5325 11.25 14.67 11.25 12.4425V5.55752C11.25 3.32252 9.6975 2.46753 7.8075 3.65252L5.6175 5.02502C5.3775 5.16752 5.1 5.25002 4.8225 5.25002H3.75C2.25 5.25002 1.5 6.00002 1.5 7.50002Z" stroke="#808191" stroke-width="1.5"/>
<path d="M13.5 6C14.835 7.7775 14.835 10.2225 13.5 12" stroke="#808191" stroke-width="1.5" stroke-linecap="round" stroke-linejoin="round"/>
<path d="M14.8726 4.125C17.0401 7.0125 17.0401 10.9875 14.8726 13.875" stroke="#808191" stroke-width="1.5" stroke-linecap="round" stroke-linejoin="round"/>
</svg>
