<svg width="16" height="15" viewBox="0 0 16 15" fill="none" xmlns="http://www.w3.org/2000/svg">
<path fill-rule="evenodd" clip-rule="evenodd" d="M15.4163 9.92169H12.3803C10.9576 9.92169 9.79958 8.76444 9.79883 7.34244C9.79883 5.91894 10.9568 4.76094 12.3803 4.76019H15.4163C15.7268 4.76019 15.9788 5.01219 15.9788 5.32269C15.9788 5.63319 15.7268 5.88519 15.4163 5.88519H12.3803C11.5771 5.88594 10.9238 6.53919 10.9238 7.34169C10.9238 8.14344 11.5778 8.79669 12.3803 8.79669H15.4163C15.7268 8.79669 15.9788 9.04869 15.9788 9.35919C15.9788 9.66969 15.7268 9.92169 15.4163 9.92169Z" fill="#43DA49"/>
<path fill-rule="evenodd" clip-rule="evenodd" d="M12.7233 7.85773H12.4893C12.1788 7.85773 11.9268 7.60573 11.9268 7.29523C11.9268 6.98473 12.1788 6.73273 12.4893 6.73273H12.7233C13.0338 6.73273 13.2858 6.98473 13.2858 7.29523C13.2858 7.60573 13.0338 7.85773 12.7233 7.85773Z" fill="#43DA49"/>
<mask id="mask0" mask-type="alpha" maskUnits="userSpaceOnUse" x="0" y="0" width="16" height="15">
<path fill-rule="evenodd" clip-rule="evenodd" d="M0.5 0.25H15.979V14.6297H0.5V0.25Z" fill="white"/>
</mask>
<g mask="url(#mask0)">
<path fill-rule="evenodd" clip-rule="evenodd" d="M4.9985 1.375C3.1385 1.375 1.625 2.8885 1.625 4.7485V10.1313C1.625 11.9913 3.1385 13.5048 4.9985 13.5048H11.4815C13.3415 13.5048 14.8542 11.9913 14.8542 10.1313V4.7485C14.8542 2.8885 13.3415 1.375 11.4815 1.375H4.9985ZM11.4815 14.6298H4.9985C2.51825 14.6298 0.5 12.6115 0.5 10.1313V4.7485C0.5 2.2675 2.51825 0.25 4.9985 0.25H11.4815C13.9617 0.25 15.9792 2.2675 15.9792 4.7485V10.1313C15.9792 12.6115 13.9617 14.6298 11.4815 14.6298Z" fill="#43DA49"/>
</g>
<path fill-rule="evenodd" clip-rule="evenodd" d="M8.51312 4.77856H4.46387C4.15337 4.77856 3.90137 4.52656 3.90137 4.21606C3.90137 3.90556 4.15337 3.65356 4.46387 3.65356H8.51312C8.82362 3.65356 9.07562 3.90556 9.07562 4.21606C9.07562 4.52656 8.82362 4.77856 8.51312 4.77856Z" fill="#43DA49"/>
</svg>
