<svg width="21" height="20" viewBox="0 0 21 20" fill="none" xmlns="http://www.w3.org/2000/svg">
<path fill-rule="evenodd" clip-rule="evenodd" d="M19.8887 12.8956H15.8407C13.9437 12.8956 12.3997 11.3526 12.3987 9.45661C12.3987 7.55861 13.9427 6.01461 15.8407 6.01361H19.8887C20.3027 6.01361 20.6387 6.34961 20.6387 6.76361C20.6387 7.17761 20.3027 7.51361 19.8887 7.51361H15.8407C14.7697 7.51461 13.8987 8.38561 13.8987 9.45561C13.8987 10.5246 14.7707 11.3956 15.8407 11.3956H19.8887C20.3027 11.3956 20.6387 11.7316 20.6387 12.1456C20.6387 12.5596 20.3027 12.8956 19.8887 12.8956Z" fill="#DA9543"/>
<path fill-rule="evenodd" clip-rule="evenodd" d="M16.2983 10.1436H15.9863C15.5723 10.1436 15.2363 9.80762 15.2363 9.39362C15.2363 8.97962 15.5723 8.64362 15.9863 8.64362H16.2983C16.7123 8.64362 17.0483 8.97962 17.0483 9.39362C17.0483 9.80762 16.7123 10.1436 16.2983 10.1436Z" fill="#DA9543"/>
<mask id="mask0" mask-type="alpha" maskUnits="userSpaceOnUse" x="0" y="0" width="21" height="20">
<path fill-rule="evenodd" clip-rule="evenodd" d="M0 0H20.6386V19.1729H0V0Z" fill="white"/>
</mask>
<g mask="url(#mask0)">
<path fill-rule="evenodd" clip-rule="evenodd" d="M5.99751 1.5C3.51751 1.5 1.49951 3.518 1.49951 5.998V13.175C1.49951 15.655 3.51751 17.673 5.99751 17.673H14.6415C17.1215 17.673 19.1385 15.655 19.1385 13.175V5.998C19.1385 3.518 17.1215 1.5 14.6415 1.5H5.99751ZM14.6415 19.173H5.99751C2.69051 19.173 -0.000488281 16.482 -0.000488281 13.175V5.998C-0.000488281 2.69 2.69051 0 5.99751 0H14.6415C17.9485 0 20.6385 2.69 20.6385 5.998V13.175C20.6385 16.482 17.9485 19.173 14.6415 19.173Z" fill="#DA9543"/>
</g>
<path fill-rule="evenodd" clip-rule="evenodd" d="M10.6846 6.03809H5.28564C4.87164 6.03809 4.53564 5.70209 4.53564 5.28809C4.53564 4.87409 4.87164 4.53809 5.28564 4.53809H10.6846C11.0986 4.53809 11.4346 4.87409 11.4346 5.28809C11.4346 5.70209 11.0986 6.03809 10.6846 6.03809Z" fill="#DA9543"/>
</svg>
