<svg width="20" height="20" viewBox="0 0 20 20" fill="none" xmlns="http://www.w3.org/2000/svg">
<path fill-rule="evenodd" clip-rule="evenodd" d="M9.99512 15.4267C9.58112 15.4267 9.24512 15.0907 9.24512 14.6767V12.1397C9.24512 11.7257 9.58112 11.3897 9.99512 11.3897C10.4091 11.3897 10.7451 11.7257 10.7451 12.1397V14.6767C10.7451 15.0907 10.4091 15.4267 9.99512 15.4267Z" fill="#DA9543"/>
<mask id="mask0" mask-type="alpha" maskUnits="userSpaceOnUse" x="0" y="2" width="20" height="11">
<path fill-rule="evenodd" clip-rule="evenodd" d="M0.000244141 2.57996H19.99V12.891H0.000244141V2.57996Z" fill="white"/>
</mask>
<g mask="url(#mask0)">
<path fill-rule="evenodd" clip-rule="evenodd" d="M1.50024 9.39296C3.87624 10.684 6.87224 11.391 9.99024 11.391C13.1142 11.391 16.1132 10.684 18.4902 9.39296V6.39096C18.4902 5.11596 17.4592 4.07996 16.1902 4.07996H3.81024C2.53624 4.07996 1.50024 5.11196 1.50024 6.38096V9.39296ZM9.99024 12.891C6.44524 12.891 3.02824 12.033 0.371244 10.477C0.141244 10.343 0.000244141 10.097 0.000244141 9.82996V6.38096C0.000244141 4.28496 1.70924 2.57996 3.81024 2.57996H16.1902C18.2862 2.57996 19.9902 4.28896 19.9902 6.39096V9.82996C19.9902 10.097 19.8482 10.343 19.6192 10.477C16.9622 12.033 13.5422 12.891 9.99024 12.891Z" fill="#DA9543"/>
</g>
<mask id="mask1" mask-type="alpha" maskUnits="userSpaceOnUse" x="5" y="0" width="10" height="5">
<path fill-rule="evenodd" clip-rule="evenodd" d="M5.74512 0.000183105H14.2451V4.07608H5.74512V0.000183105Z" fill="white"/>
</mask>
<g mask="url(#mask1)">
<path fill-rule="evenodd" clip-rule="evenodd" d="M13.4951 4.07606C13.0811 4.07606 12.7451 3.74006 12.7451 3.32606V2.96006C12.7451 2.15506 12.0901 1.50006 11.2851 1.50006H8.70512C7.90012 1.50006 7.24512 2.15506 7.24512 2.96006V3.32606C7.24512 3.74006 6.90912 4.07606 6.49512 4.07606C6.08112 4.07606 5.74512 3.74006 5.74512 3.32606V2.96006C5.74512 1.32806 7.07312 6.10352e-05 8.70512 6.10352e-05H11.2851C12.9171 6.10352e-05 14.2451 1.32806 14.2451 2.96006V3.32606C14.2451 3.74006 13.9091 4.07606 13.4951 4.07606Z" fill="#DA9543"/>
</g>
<path fill-rule="evenodd" clip-rule="evenodd" d="M15.7951 19.7402H4.19506C2.12006 19.7402 0.373062 18.1192 0.216062 16.0492L0.0260623 13.5402C-0.00493768 13.1272 0.305062 12.7662 0.718062 12.7352C1.13306 12.7202 1.49106 13.0132 1.52306 13.4272L1.71206 15.9352C1.81006 17.2272 2.90006 18.2402 4.19506 18.2402H15.7951C17.0901 18.2402 18.1811 17.2272 18.2781 15.9352L18.4681 13.4272C18.5001 13.0132 18.8671 12.7192 19.2731 12.7352C19.6861 12.7662 19.9951 13.1272 19.9641 13.5402L19.7741 16.0492C19.6171 18.1192 17.8701 19.7402 15.7951 19.7402Z" fill="#DA9543"/>
</svg>
